<?xml version="1.0" encoding="UTF-8"?>
<svg width="50px" height="50px" viewBox="0 0 50 50" version="1.1" xmlns="http://www.w3.org/2000/svg" xmlns:xlink="http://www.w3.org/1999/xlink">
    <g id="Page-1" stroke="none" stroke-width="1" fill="none" fill-rule="evenodd">
        <g id="Group" transform="translate(-8.000000, -24.000000)">
            <polygon id="Triangle" fill="#3D4448" transform="translate(41.224748, 37.253842) rotate(35.000000) translate(-41.224748, -37.253842) " points="47.3641384 16.7750411 76.0429602 57.7326433 6.40653619 45.453863"></polygon>
            <g id="github" transform="translate(46.313708, 35.313708) rotate(45.000000) translate(-46.313708, -35.313708) translate(38.313708, 27.313708)" fill="#FFFFFF">
                <path d="M8,0 C3.58,0 0,3.582 0,8 C0,11.535 2.292,14.533 5.47,15.59 C5.87,15.665 6.017,15.418 6.017,15.205 C6.017,15.015 6.01,14.512 6.007,13.845 C3.781,14.328 3.312,12.772 3.312,12.772 C2.948,11.848 2.422,11.602 2.422,11.602 C1.697,11.106 2.478,11.116 2.478,11.116 C3.281,11.172 3.703,11.94 3.703,11.94 C4.417,13.163 5.576,12.81 6.033,12.605 C6.105,12.088 6.311,11.735 6.54,11.535 C4.763,11.335 2.896,10.647 2.896,7.582 C2.896,6.709 3.206,5.995 3.719,5.435 C3.629,5.233 3.359,4.42 3.789,3.318 C3.789,3.318 4.459,3.103 5.989,4.138 C6.629,3.96 7.309,3.872 7.989,3.868 C8.669,3.872 9.349,3.96 9.989,4.138 C11.509,3.103 12.179,3.318 12.179,3.318 C12.609,4.42 12.339,5.233 12.259,5.435 C12.769,5.995 13.079,6.709 13.079,7.582 C13.079,10.655 11.209,11.332 9.429,11.529 C9.709,11.769 9.969,12.259 9.969,13.009 C9.969,14.079 9.959,14.939 9.959,15.199 C9.959,15.409 10.099,15.659 10.509,15.579 C13.71,14.53 16,11.53 16,8 C16,3.582 12.418,0 8,0" id="Shape"></path>
            </g>
            <path d="M20.920689,44.340689 C20.535689,44.340689 20.230689,44.475689 20.010689,44.750689 C19.805689,45.000689 19.705689,45.320689 19.705689,45.715689 C19.705689,46.110689 19.805689,46.430689 20.010689,46.675689 C20.225689,46.935689 20.525689,47.065689 20.915689,47.065689 C21.235689,47.065689 21.490689,46.980689 21.685689,46.815689 C21.885689,46.645689 22.010689,46.390689 22.070689,46.060689 L21.670689,46.060689 C21.610689,46.505689 21.355689,46.730689 20.915689,46.730689 C20.655689,46.730689 20.455689,46.635689 20.320689,46.455689 C20.180689,46.275689 20.115689,46.025689 20.115689,45.710689 C20.115689,45.395689 20.185689,45.145689 20.325689,44.960689 C20.470689,44.770689 20.670689,44.675689 20.920689,44.675689 C21.125689,44.675689 21.290689,44.720689 21.420689,44.820689 C21.545689,44.920689 21.625689,45.070689 21.660689,45.270689 L22.055689,45.270689 C22.010689,44.955689 21.890689,44.720689 21.690689,44.565689 C21.495689,44.415689 21.240689,44.340689 20.920689,44.340689 Z M23.695689,44.340689 C23.305689,44.340689 23.000689,44.470689 22.770689,44.740689 C22.550689,44.995689 22.440689,45.315689 22.440689,45.705689 C22.440689,46.090689 22.550689,46.410689 22.770689,46.660689 C23.000689,46.930689 23.305689,47.065689 23.695689,47.065689 C24.080689,47.065689 24.390689,46.930689 24.625689,46.660689 C24.840689,46.410689 24.950689,46.090689 24.950689,45.705689 C24.950689,45.315689 24.840689,44.995689 24.620689,44.740689 C24.390689,44.470689 24.080689,44.340689 23.695689,44.340689 Z M23.695689,44.675689 C23.965689,44.675689 24.180689,44.780689 24.340689,44.990689 C24.475689,45.180689 24.545689,45.415689 24.545689,45.705689 C24.545689,45.985689 24.475689,46.225689 24.340689,46.415689 C24.180689,46.625689 23.965689,46.730689 23.695689,46.730689 C23.420689,46.730689 23.205689,46.625689 23.055689,46.415689 C22.915689,46.225689 22.850689,45.990689 22.850689,45.705689 C22.850689,45.415689 22.915689,45.180689 23.055689,44.990689 C23.205689,44.780689 23.420689,44.675689 23.695689,44.675689 Z M27.380689,43.355689 L27.380689,44.885689 C27.180689,44.520689 26.895689,44.340689 26.525689,44.340689 C26.155689,44.340689 25.870689,44.475689 25.660689,44.755689 C25.465689,45.005689 25.370689,45.315689 25.370689,45.695689 C25.370689,46.085689 25.465689,46.405689 25.660689,46.655689 C25.870689,46.925689 26.165689,47.065689 26.545689,47.065689 C26.935689,47.065689 27.225689,46.900689 27.405689,46.570689 L27.405689,46.995689 L27.780689,46.995689 L27.780689,43.355689 L27.380689,43.355689 Z M26.610689,44.670689 C26.840689,44.670689 27.030689,44.760689 27.175689,44.950689 C27.315689,45.135689 27.390689,45.380689 27.390689,45.680689 L27.390689,45.730689 C27.390689,46.020689 27.325689,46.255689 27.200689,46.435689 C27.055689,46.635689 26.855689,46.735689 26.595689,46.735689 C26.315689,46.735689 26.105689,46.630689 25.965689,46.430689 C25.840689,46.250689 25.780689,46.005689 25.780689,45.695689 C25.780689,45.385689 25.840689,45.145689 25.970689,44.970689 C26.110689,44.770689 26.325689,44.670689 26.610689,44.670689 Z M29.465689,44.340689 C29.090689,44.340689 28.795689,44.475689 28.575689,44.745689 C28.355689,45.000689 28.250689,45.320689 28.250689,45.700689 C28.250689,46.120689 28.360689,46.450689 28.590689,46.700689 C28.810689,46.940689 29.110689,47.065689 29.480689,47.065689 C29.815689,47.065689 30.090689,46.965689 30.305689,46.775689 C30.480689,46.615689 30.595689,46.415689 30.655689,46.165689 L30.255689,46.165689 C30.190689,46.345689 30.105689,46.480689 29.995689,46.570689 C29.865689,46.675689 29.690689,46.730689 29.480689,46.730689 C29.235689,46.730689 29.040689,46.650689 28.900689,46.490689 C28.760689,46.330689 28.685689,46.105689 28.665689,45.815689 L30.705689,45.815689 C30.695689,45.365689 30.595689,45.010689 30.405689,44.760689 C30.195689,44.480689 29.880689,44.340689 29.465689,44.340689 Z M29.475689,44.675689 C29.965689,44.675689 30.240689,44.950689 30.290689,45.505689 L28.675689,45.505689 C28.700689,45.250689 28.780689,45.050689 28.920689,44.900689 C29.060689,44.750689 29.245689,44.675689 29.475689,44.675689 Z M33.170689,43.435689 C33.085689,43.435689 33.015689,43.460689 32.955689,43.520689 C32.895689,43.570689 32.870689,43.640689 32.870689,43.730689 C32.870689,43.815689 32.895689,43.885689 32.955689,43.945689 C33.015689,44.000689 33.085689,44.030689 33.170689,44.030689 C33.255689,44.030689 33.325689,44.000689 33.385689,43.945689 C33.445689,43.885689 33.475689,43.815689 33.475689,43.730689 C33.475689,43.640689 33.445689,43.570689 33.385689,43.520689 C33.325689,43.460689 33.255689,43.435689 33.170689,43.435689 Z M32.970689,44.410689 L32.970689,46.995689 L33.370689,46.995689 L33.370689,44.410689 L32.970689,44.410689 Z M35.330689,44.340689 C35.160689,44.340689 35.005689,44.380689 34.865689,44.460689 C34.725689,44.535689 34.610689,44.645689 34.520689,44.790689 L34.520689,44.410689 L34.120689,44.410689 L34.120689,46.995689 L34.520689,46.995689 L34.520689,45.435689 C34.535689,45.200689 34.610689,45.015689 34.750689,44.875689 C34.880689,44.745689 35.035689,44.680689 35.215689,44.680689 C35.665689,44.680689 35.895689,44.930689 35.895689,45.435689 L35.895689,46.995689 L36.295689,46.995689 L36.295689,45.405689 C36.295689,44.695689 35.970689,44.340689 35.330689,44.340689 Z M39.645689,44.340689 C39.285689,44.340689 39.000689,44.465689 38.790689,44.720689 C38.580689,44.960689 38.480689,45.265689 38.480689,45.645689 C38.480689,46.020689 38.580689,46.325689 38.790689,46.565689 C39.000689,46.810689 39.285689,46.935689 39.645689,46.935689 C40.035689,46.935689 40.325689,46.760689 40.515689,46.415689 L40.515689,46.870689 C40.515689,47.440689 40.255689,47.730689 39.735689,47.730689 C39.500689,47.730689 39.325689,47.685689 39.210689,47.600689 C39.095689,47.520689 39.020689,47.390689 38.990689,47.215689 L38.590689,47.215689 C38.635689,47.495689 38.750689,47.705689 38.935689,47.845689 C39.115689,47.985689 39.385689,48.055689 39.735689,48.055689 C40.520689,48.055689 40.915689,47.640689 40.915689,46.815689 L40.915689,44.410689 L40.515689,44.410689 L40.515689,44.855689 C40.325689,44.510689 40.035689,44.340689 39.645689,44.340689 Z M39.705689,44.670689 C39.960689,44.670689 40.160689,44.760689 40.310689,44.950689 C40.450689,45.120689 40.520689,45.355689 40.520689,45.645689 C40.520689,45.925689 40.450689,46.155689 40.310689,46.330689 C40.160689,46.510689 39.960689,46.600689 39.700689,46.600689 C39.420689,46.600689 39.215689,46.500689 39.075689,46.310689 C38.950689,46.140689 38.890689,45.915689 38.890689,45.645689 C38.890689,45.355689 38.960689,45.120689 39.100689,44.950689 C39.245689,44.760689 39.445689,44.670689 39.705689,44.670689 Z M41.865689,43.435689 C41.780689,43.435689 41.710689,43.460689 41.650689,43.520689 C41.590689,43.570689 41.565689,43.640689 41.565689,43.730689 C41.565689,43.815689 41.590689,43.885689 41.650689,43.945689 C41.710689,44.000689 41.780689,44.030689 41.865689,44.030689 C41.950689,44.030689 42.020689,44.000689 42.080689,43.945689 C42.140689,43.885689 42.170689,43.815689 42.170689,43.730689 C42.170689,43.640689 42.140689,43.570689 42.080689,43.520689 C42.020689,43.460689 41.950689,43.435689 41.865689,43.435689 Z M41.665689,44.410689 L41.665689,46.995689 L42.065689,46.995689 L42.065689,44.410689 L41.665689,44.410689 Z M43.505689,43.575689 L43.110689,43.740689 L43.110689,44.410689 L42.590689,44.410689 L42.590689,44.745689 L43.110689,44.745689 L43.110689,46.390689 C43.110689,46.585689 43.150689,46.730689 43.235689,46.830689 C43.325689,46.940689 43.480689,46.995689 43.690689,46.995689 L44.080689,46.995689 L44.080689,46.660689 L43.750689,46.660689 C43.660689,46.660689 43.595689,46.635689 43.560689,46.595689 C43.520689,46.555689 43.505689,46.485689 43.505689,46.390689 L43.505689,44.745689 L44.145689,44.745689 L44.145689,44.410689 L43.505689,44.410689 L43.505689,43.575689 Z M44.590689,43.355689 L44.590689,46.995689 L44.990689,46.995689 L44.990689,45.520689 C44.990689,45.280689 45.055689,45.075689 45.190689,44.915689 C45.320689,44.755689 45.485689,44.675689 45.685689,44.675689 C45.900689,44.675689 46.065689,44.740689 46.185689,44.870689 C46.295689,45.000689 46.355689,45.185689 46.355689,45.425689 L46.355689,46.995689 L46.755689,46.995689 L46.755689,45.365689 C46.755689,45.035689 46.675689,44.780689 46.515689,44.605689 C46.355689,44.425689 46.120689,44.340689 45.820689,44.340689 C45.645689,44.340689 45.490689,44.380689 45.350689,44.460689 C45.200689,44.545689 45.080689,44.670689 44.990689,44.835689 L44.990689,43.355689 L44.590689,43.355689 Z M47.370689,44.410689 L47.370689,46.010689 C47.370689,46.710689 47.680689,47.065689 48.310689,47.065689 C48.660689,47.065689 48.940689,46.905689 49.150689,46.595689 L49.150689,46.995689 L49.550689,46.995689 L49.550689,44.410689 L49.150689,44.410689 L49.150689,45.985689 C49.120689,46.205689 49.035689,46.385689 48.895689,46.525689 C48.760689,46.655689 48.605689,46.725689 48.435689,46.725689 C48.200689,46.725689 48.030689,46.660689 47.925689,46.540689 C47.820689,46.420689 47.770689,46.235689 47.770689,45.990689 L47.770689,44.410689 L47.370689,44.410689 Z M50.170689,43.355689 L50.170689,46.995689 L50.545689,46.995689 L50.545689,46.570689 C50.720689,46.900689 51.005689,47.065689 51.405689,47.065689 C51.780689,47.065689 52.075689,46.925689 52.290689,46.655689 C52.480689,46.405689 52.580689,46.085689 52.580689,45.695689 C52.580689,45.315689 52.480689,45.005689 52.290689,44.755689 C52.080689,44.475689 51.790689,44.340689 51.425689,44.340689 C51.055689,44.340689 50.770689,44.520689 50.570689,44.885689 L50.570689,43.355689 L50.170689,43.355689 Z M51.340689,44.670689 C51.620689,44.670689 51.830689,44.770689 51.975689,44.970689 C52.105689,45.145689 52.170689,45.385689 52.170689,45.695689 C52.170689,46.005689 52.105689,46.250689 51.985689,46.430689 C51.845689,46.630689 51.635689,46.735689 51.355689,46.735689 C51.095689,46.735689 50.890689,46.635689 50.750689,46.435689 C50.620689,46.255689 50.555689,46.020689 50.555689,45.730689 L50.555689,45.680689 C50.555689,45.380689 50.625689,45.135689 50.775689,44.950689 C50.915689,44.760689 51.105689,44.670689 51.340689,44.670689 Z" id="code-in-github" fill="#FFFFFF" transform="translate(36.143189, 45.705689) rotate(45.000000) translate(-36.143189, -45.705689) "></path>
        </g>
        <g id="Artboard"></g>
    </g>
</svg>